<svg width="270" height="77" viewBox="0 0 270 77" fill="none" xmlns="http://www.w3.org/2000/svg">
<rect width="269.077" height="77" rx="38.5" fill="#FDFFFC"/>
<path d="M55.0471 47.6055C55.0278 49.9213 54.9971 52.2371 54.9856 54.5492C54.9625 58.6674 51.5839 61.9065 47.3137 61.8992C43.028 61.8881 39.7263 58.6748 39.7186 54.516C39.7148 52.2593 39.7033 50.0026 39.6917 47.7459C39.6341 47.6683 39.6341 47.5908 39.6917 47.5132C40.5912 44.4292 41.3868 41.3008 43.324 38.6157C44.5078 36.9758 45.7301 35.0885 47.0139 33.7847C48.2976 32.4846 53.2252 30.8705 57.4455 30.8705C59.5287 30.8705 61.7119 31.1106 64.0373 31.1106C57.5723 34.8595 54.3936 40.2667 55.0471 47.6055Z" fill="#2C8C9C"/>
<path d="M39.6956 47.7423C38.7231 46.1984 37.7776 45.7367 35.4445 45.7367C33.8456 45.7367 31.5855 45.8956 29.6598 45.6186C25.5318 45.0239 22.7221 41.7478 23.0219 37.8328C23.314 33.9953 26.4696 31.2178 30.6323 31.1439C37.1165 34.83 40.2068 40.252 39.6994 47.5133C39.6379 47.5909 39.6379 47.6647 39.6956 47.7423Z" fill="#35536D"/>
<path d="M55.047 47.6052C54.3936 40.2663 57.5723 34.8591 64.0411 31.1102C68.4497 31.3244 71.6899 34.4602 71.6207 38.4491C71.5477 42.5858 68.2191 45.6181 63.7182 45.6403C62.2038 45.6477 60.6933 45.6366 59.1789 45.6366C57.0572 45.6329 55.9848 46.0946 55.047 47.6052Z" fill="#35536D"/>
<path d="M39.6729 22.3979C39.6575 18.1763 42.9246 15.059 47.3409 15.0738C51.5651 15.0886 54.9513 18.3129 54.959 22.3277C54.9667 26.3868 51.419 29.8069 47.2372 29.7626C43.063 29.7183 39.6844 26.4311 39.6729 22.3979Z" fill="#35536D"/>
<path d="M39.6955 47.5133C40.2029 40.252 37.1126 34.83 30.6284 31.1439C34.4105 31.1439 38.1119 31.251 41.9633 31.251C43.8735 31.251 45.5417 32.5511 47.0176 33.7847C45.7838 35.3951 45.0497 36.2187 43.3277 38.6158C41.6058 41.0128 40.5949 44.4292 39.6955 47.5133Z" fill="#27B2C6"/>
<path d="M92.2734 20.2561C94.3341 20.2561 96.1348 20.6645 97.6757 21.4814C99.2166 22.2982 100.405 23.4492 101.24 24.9344C102.094 26.401 102.521 28.0997 102.521 30.0304C102.521 31.9426 102.094 33.6413 101.24 35.1265C100.405 36.6117 99.2073 37.7627 97.6479 38.5795C96.107 39.3964 94.3155 39.8048 92.2734 39.8048H84.9495V20.2561H92.2734ZM91.967 35.6834C93.7678 35.6834 95.1695 35.1915 96.172 34.2075C97.1745 33.2236 97.6757 31.8312 97.6757 30.0304C97.6757 28.2297 97.1745 26.828 96.172 25.8255C95.1695 24.823 93.7678 24.3218 91.967 24.3218H89.7114V35.6834H91.967ZM109.944 26.8559C110.501 26.0019 111.197 25.3335 112.033 24.8509C112.868 24.3496 113.796 24.099 114.817 24.099V29.1393H113.509C112.32 29.1393 111.429 29.3992 110.835 29.9191C110.241 30.4203 109.944 31.3114 109.944 32.5924V39.8048H105.182V24.2661H109.944V26.8559ZM137.893 26.5495C137.893 27.682 137.633 28.7216 137.113 29.6684C136.593 30.5967 135.795 31.3485 134.718 31.9241C133.642 32.4996 132.305 32.7873 130.708 32.7873H127.757V39.8048H122.995V20.2561H130.708C132.268 20.2561 133.586 20.5253 134.663 21.0636C135.739 21.602 136.547 22.3446 137.085 23.2914C137.624 24.2382 137.893 25.3243 137.893 26.5495ZM130.346 29.0001C131.256 29.0001 131.934 28.7866 132.379 28.3596C132.825 27.9326 133.048 27.3293 133.048 26.5495C133.048 25.7698 132.825 25.1665 132.379 24.7395C131.934 24.3125 131.256 24.099 130.346 24.099H127.757V29.0001H130.346ZM152.541 36.3518H145.245L144.076 39.8048H139.091L146.164 20.2561H151.678L158.751 39.8048H153.711L152.541 36.3518ZM151.316 32.6759L148.893 25.5192L146.498 32.6759H151.316ZM178.392 39.8048H173.63L165.666 27.747V39.8048H160.904V20.2561H165.666L173.63 32.3696V20.2561H178.392V39.8048ZM189.167 20.2561C191.228 20.2561 193.029 20.6645 194.57 21.4814C196.111 22.2982 197.299 23.4492 198.134 24.9344C198.988 26.401 199.415 28.0997 199.415 30.0304C199.415 31.9426 198.988 33.6413 198.134 35.1265C197.299 36.6117 196.101 37.7627 194.542 38.5795C193.001 39.3964 191.21 39.8048 189.167 39.8048H181.844V20.2561H189.167ZM188.861 35.6834C190.662 35.6834 192.064 35.1915 193.066 34.2075C194.069 33.2236 194.57 31.8312 194.57 30.0304C194.57 28.2297 194.069 26.828 193.066 25.8255C192.064 24.823 190.662 24.3218 188.861 24.3218H186.606V35.6834H188.861ZM214.246 36.3518H206.95L205.78 39.8048H200.795L207.869 20.2561H213.382L220.456 39.8048H215.415L214.246 36.3518ZM213.02 32.6759L210.598 25.5192L208.203 32.6759H213.02ZM239.372 20.2561L232.605 33.3443V39.8048H227.844V33.3443L221.077 20.2561H226.479L230.266 28.4432L234.026 20.2561H239.372Z" fill="#35536D"/>
<path d="M92.9873 48.4597V50.1773H89.3094V61.6404H87.1624V50.1773H83.5032V48.4597H92.9873ZM101.651 50.1773V54.1726H106.505V55.8155H101.651V59.9041H107.065V61.6404H99.5228V48.4597H107.065V50.1773H101.651ZM116.207 59.9788H120.762V61.6404H114.078V48.4597H116.207V59.9788ZM129.504 50.1773V54.1726H134.359V55.8155H129.504V59.9041H134.919V61.6404H127.376V48.4597H134.919V50.1773H129.504ZM147.813 48.329C149.431 48.329 150.775 48.7397 151.845 49.5612C152.916 50.3827 153.638 51.4966 154.011 52.903H151.752C151.441 52.1065 150.943 51.4779 150.258 51.0174C149.586 50.5445 148.759 50.308 147.775 50.308C146.991 50.308 146.288 50.5009 145.666 50.8867C145.056 51.2726 144.57 51.8264 144.209 52.5483C143.861 53.2578 143.687 54.0917 143.687 55.05C143.687 55.996 143.861 56.8299 144.209 57.5518C144.57 58.2612 145.056 58.8088 145.666 59.1947C146.288 59.5805 146.991 59.7734 147.775 59.7734C148.759 59.7734 149.586 59.5432 150.258 59.0827C150.943 58.6097 151.441 57.9812 151.752 57.197H154.011C153.638 58.6035 152.916 59.7174 151.845 60.5389C150.775 61.3479 149.431 61.7524 147.813 61.7524C146.568 61.7524 145.467 61.4724 144.508 60.9123C143.55 60.3397 142.809 59.5494 142.287 58.5412C141.764 57.5206 141.502 56.3569 141.502 55.05C141.502 53.7432 141.764 52.5857 142.287 51.5775C142.809 50.5569 143.55 49.7603 144.508 49.1878C145.467 48.6153 146.568 48.329 147.813 48.329ZM163.21 59.9788H167.766V61.6404H161.082V48.4597H163.21V59.9788ZM176.508 48.4597V61.6404H174.38V48.4597H176.508ZM194.691 61.6404H192.563L186.159 51.9136V61.6404H184.031V48.4784H186.159L192.563 58.2425V48.4784H194.691V61.6404ZM204.343 48.4597V61.6404H202.215V48.4597H204.343ZM217.747 48.329C219.365 48.329 220.709 48.7397 221.779 49.5612C222.85 50.3827 223.572 51.4966 223.945 52.903H221.686C221.375 52.1065 220.877 51.4779 220.193 51.0174C219.52 50.5445 218.693 50.308 217.709 50.308C216.925 50.308 216.222 50.5009 215.6 50.8867C214.99 51.2726 214.505 51.8264 214.144 52.5483C213.795 53.2578 213.621 54.0917 213.621 55.05C213.621 55.996 213.795 56.8299 214.144 57.5518C214.505 58.2612 214.99 58.8088 215.6 59.1947C216.222 59.5805 216.925 59.7734 217.709 59.7734C218.693 59.7734 219.52 59.5432 220.193 59.0827C220.877 58.6097 221.375 57.9812 221.686 57.197H223.945C223.572 58.6035 222.85 59.7174 221.779 60.5389C220.709 61.3479 219.365 61.7524 217.747 61.7524C216.502 61.7524 215.401 61.4724 214.442 60.9123C213.484 60.3397 212.743 59.5494 212.221 58.5412C211.698 57.5206 211.437 56.3569 211.437 55.05C211.437 53.7432 211.698 52.5857 212.221 51.5775C212.743 50.5569 213.484 49.7603 214.442 49.1878C215.401 48.6153 216.502 48.329 217.747 48.329ZM239.679 58.1305C239.679 58.7777 239.523 59.3814 239.212 59.9415C238.901 60.4891 238.428 60.9309 237.793 61.267C237.158 61.603 236.38 61.7711 235.459 61.7711C234.563 61.7711 233.76 61.6155 233.051 61.3043C232.342 60.9807 231.775 60.5327 231.352 59.9601C230.929 59.3876 230.686 58.7279 230.624 57.9812H232.902C232.964 58.5537 233.207 59.0453 233.63 59.456C234.065 59.8668 234.644 60.0721 235.366 60.0721C236.013 60.0721 236.511 59.8979 236.86 59.5494C237.221 59.2009 237.401 58.7528 237.401 58.2052C237.401 57.7322 237.27 57.3464 237.009 57.0477C236.748 56.7365 236.424 56.4938 236.038 56.3196C235.652 56.1453 235.123 55.9462 234.451 55.7221C233.63 55.4608 232.958 55.1994 232.435 54.938C231.925 54.6766 231.489 54.297 231.128 53.7992C230.767 53.3013 230.587 52.6479 230.587 51.8389C230.587 51.1294 230.761 50.5071 231.109 49.9719C231.458 49.4367 231.956 49.026 232.603 48.7397C233.25 48.441 233.997 48.2917 234.843 48.2917C236.187 48.2917 237.252 48.6153 238.036 49.2625C238.832 49.9097 239.287 50.756 239.399 51.8015H237.102C237.015 51.3037 236.779 50.8805 236.393 50.532C236.019 50.1711 235.503 49.9906 234.843 49.9906C234.246 49.9906 233.767 50.1462 233.406 50.4573C233.045 50.756 232.864 51.1917 232.864 51.7642C232.864 52.2123 232.989 52.5857 233.238 52.8844C233.487 53.1706 233.798 53.4009 234.171 53.5751C234.557 53.7369 235.08 53.9299 235.739 54.1539C236.573 54.4153 237.252 54.6829 237.774 54.9567C238.31 55.2181 238.758 55.6039 239.119 56.1142C239.492 56.6245 239.679 57.2966 239.679 58.1305Z" fill="#35536D"/>
</svg>
